<?xml version="1.0" encoding="utf-8"?>
<!-- Generator: Adobe Illustrator 21.0.0, SVG Export Plug-In . SVG Version: 6.00 Build 0)  -->
<svg version="1.1" id="Camada_1" xmlns="http://www.w3.org/2000/svg" xmlns:xlink="http://www.w3.org/1999/xlink" x="0px" y="0px"
	 viewBox="0 0 951.3 239.7" style="enable-background:new 0 0 951.3 239.7;" xml:space="preserve">
<style type="text/css">
	.st0{fill:#DDA63A;}
	.st1{fill:#29482D;}
</style>
<polygon class="st0" points="410.6,200.4 424.8,200.4 424.8,196.9 410.6,196.9 410.6,186.2 425.9,186.2 425.9,182.7 407,182.7 
	407,214.9 426.1,214.9 426.1,211.4 410.6,211.4 "/>
<polygon class="st0" points="422.5,172.8 418.2,172.8 413.9,179.7 417.5,179.7 "/>
<path class="st0" d="M457.4,199.6h-7.5v-13.4h7.5c3.9,0,6.6,2.8,6.6,6.7C464.1,196.8,461.3,199.6,457.4,199.6 M457.4,182.7h-11.1
	v32.2h3.6v-11.8h7.5c5.9,0,10.3-4.4,10.3-10.2C467.7,187.1,463.3,182.7,457.4,182.7"/>
<path class="st0" d="M477.8,186.2h9.2c3.4,0,6.1,2.8,6.1,6.3c0,3.4-2.8,6.2-6.1,6.2h-9.2V186.2z M496.8,192.5c0-5.4-4.4-9.8-9.8-9.8
	h-12.8v32.2h3.6v-12.7h8.7l7.4,12.7h4.2l-7.8-13.2C494.1,200.2,496.8,196.6,496.8,192.5"/>
<polygon class="st0" points="506.8,200.4 520.9,200.4 520.9,196.9 506.8,196.9 506.8,186.2 522,186.2 522,182.7 503.2,182.7 
	503.2,214.9 522.3,214.9 522.3,211.4 506.8,211.4 "/>
<path class="st0" d="M554.1,205.7c-1.9,3.7-6.1,6.1-10.7,6.1c-7.5,0-13.1-5.6-13.1-13c0-7.4,5.6-13,13.1-13c4.5,0,8.6,2.4,10.6,6
	l0.3,0.6l3.2-1.8l-0.3-0.6c-2.7-4.8-8-7.7-13.8-7.7c-9.5,0-16.7,7.1-16.7,16.6c0,9.5,7.2,16.6,16.7,16.6c5.9,0,11.2-3,13.9-7.9
	l0.3-0.6l-3.2-1.8L554.1,205.7z"/>
<rect x="563.6" y="182.7" class="st0" width="3.6" height="32.2"/>
<path class="st0" d="M585.4,196.8c-4.5-1.5-7.1-2.5-7.1-5.7c0-3.2,2.5-5.3,6.3-5.3c4.4,0,6.4,2.7,7.3,4.9l0.3,0.7l3.1-1.7l-0.2-0.5
	c-1.8-4.3-5.7-6.9-10.5-6.9c-5.9,0-10,3.7-10,8.9c0,5.8,4.9,7.4,10.1,9.1l0.1,0c5.1,1.6,7.5,2.9,7.5,6c0,3.5-2.7,5.5-7.1,5.5
	c-4.5,0-7.6-2-8.6-5.8l-0.2-0.8l-3.2,1.9l0.2,0.5c1.6,4.8,6,7.7,11.9,7.7c6.5,0,10.8-3.7,10.8-9.1
	C596,200.3,590.6,198.5,585.4,196.8"/>
<path class="st0" d="M617.1,211.8c-7.3,0-12.9-5.7-12.9-13c0-7.3,5.7-13,12.9-13c7.3,0,12.9,5.7,12.9,13
	C630,206.1,624.3,211.8,617.1,211.8 M617.1,182.2c-9.3,0-16.6,7.3-16.6,16.6c0,9.3,7.3,16.6,16.6,16.6c9.3,0,16.6-7.3,16.6-16.6
	C633.6,189.5,626.4,182.2,617.1,182.2"/>
<path class="st1" d="M442.8,123.6c-1.5-5.6-5.9-7.6-10.2-7.6c-5.5,0-9.2,2.7-10.5,7.6H442.8z M433.9,141.2c4,0,7.3-1.5,9.3-3.7
	l11.6,6.7c-4.7,6.6-11.9,9.9-21.1,9.9c-16.5,0-26.7-11.1-26.7-25.5s10.4-25.5,25.7-25.5c14.1,0,24.5,10.9,24.5,25.5
	c0,2-0.2,4-0.6,5.8h-34.3C424.2,139.5,428.6,141.2,433.9,141.2"/>
<polygon class="st1" points="510.3,104.5 492.5,152.8 476.1,152.8 458.2,104.5 474.2,104.5 484.3,135.1 494.3,104.5 "/>
<path class="st1" d="M548.8,128.7c0-7.2-4.8-11.8-11.5-11.8c-6.7,0-11.5,4.5-11.5,11.8c0,7.2,4.8,11.8,11.5,11.8
	C544,140.5,548.8,135.9,548.8,128.7 M563.3,104.5v48.3h-14.5v-4.5c-3.2,3.7-7.9,5.9-14.4,5.9c-12.7,0-23.1-11.1-23.1-25.5
	c0-14.4,10.4-25.5,23.1-25.5c6.5,0,11.2,2.2,14.4,5.9v-4.5H563.3z"/>
<path class="st1" d="M620.2,123.2v29.6h-14.5v-27.5c0-6-3.8-8.8-8.4-8.8c-5.3,0-9,3.1-9,9.9v26.4h-14.5v-48.3h14.5v4.5
	c2.6-3.6,7.4-5.9,13.8-5.9C611.9,103.2,620.2,110.1,620.2,123.2"/>
<path class="st1" d="M665.6,127.7c0-6.7-4.8-11.2-11.7-11.2s-11.7,4.5-11.7,11.2c0,6.7,4.8,11.2,11.7,11.2S665.6,134.4,665.6,127.7
	 M679.7,104.5v45.9c0,16.2-12.7,23.1-25.5,23.1c-10,0-18.4-3.8-22.9-11.7l12.4-7.1c1.8,3.4,4.6,6.1,11,6.1c6.8,0,10.9-3.5,10.9-10.3
	V146c-3.2,4-7.8,6.3-14.1,6.3c-13.7,0-23.8-11.2-23.8-24.5s10-24.5,23.8-24.5c6.3,0,10.9,2.3,14.1,6.3v-4.9H679.7z"/>
<path class="st1" d="M723.8,123.6c-1.5-5.6-5.9-7.6-10.2-7.6c-5.5,0-9.2,2.7-10.5,7.6H723.8z M714.9,141.2c4,0,7.3-1.5,9.3-3.7
	l11.6,6.7c-4.7,6.6-11.9,9.9-21.1,9.9c-16.5,0-26.7-11.1-26.7-25.5s10.4-25.5,25.7-25.5c14.1,0,24.5,10.9,24.5,25.5
	c0,2-0.2,4-0.6,5.8h-34.3C705.1,139.5,709.6,141.2,714.9,141.2"/>
<rect x="746.4" y="84.3" class="st1" width="14.5" height="68.5"/>
<rect x="771.5" y="104.5" class="st1" width="14.5" height="48.3"/>
<polygon class="st1" points="833.8,139.3 833.8,152.8 795.2,152.8 795.2,143.2 813.4,118 796.1,118 796.1,104.5 832.8,104.5 
	832.8,114.2 814.6,139.3 "/>
<path class="st1" d="M874.6,128.7c0-7.2-4.8-11.8-11.5-11.8c-6.7,0-11.5,4.5-11.5,11.8c0,7.2,4.8,11.8,11.5,11.8
	C869.8,140.5,874.6,135.9,874.6,128.7 M889.1,104.5v48.3h-14.5v-4.5c-3.2,3.7-7.9,5.9-14.4,5.9c-12.7,0-23.1-11.1-23.1-25.5
	c0-14.4,10.4-25.5,23.1-25.5c6.5,0,11.2,2.2,14.4,5.9v-4.5H889.1z"/>
<path class="st1" d="M928.7,103.6V120c-6-1-14.5,1.4-14.5,11v21.8h-14.5v-48.3h14.5v8.6C916.2,106.6,922.6,103.6,928.7,103.6"/>
<path class="st1" d="M770.8,92.2c0-4.3,3.6-7.9,7.9-7.9s7.9,3.6,7.9,7.9c0,4.3-3.6,7.9-7.9,7.9S770.8,96.5,770.8,92.2"/>
<path class="st0" d="M227.2,55.2V41.7H194V15.4h-7.9h-7.9v26.3H145v13.5h33.2v69.3c0,0.1,0,0.1,0,0.2c0,4.3,3.6,8,7.9,8
	c4.3,0,8-3.6,8-8c0-0.1,0-0.1,0-0.2V55.2H227.2z"/>
<path class="st1" d="M293.7,53.8c-4,0.8-7,5.5-7.1,5.6c-0.9,1.4-1.8,3.1-2.9,5.1c-4.1-2.7-7.1-2.9-9.9,0.4c-2.4,2.8-3.9,6.3-6.1,9.9
	c-3.4-0.5-7.3,0.1-9.1,4.2c-1.4,3.2-2.6,6.5-3.8,9.8c-0.1,0.3-0.2,0.7-0.2,1c0,1.9,1.5,3.4,3.4,3.4c0.8,0,1.5-0.3,2.1-0.7l3.6-2.8
	c0,0,0,0,0,0c1.9-1.4,4.1-2.2,6.4-2.2c0,0,0,0,0,0c0.1,0,0.2,0,0.3,0c3,0,5.8,1.2,7.9,3.3c2.1,2.1,3.3,4.9,3.3,7.9
	c0,0.1,0,0.1,0,0.2c0,1.8-0.5,3.5-1.3,5.1c-0.2,0.4-0.4,0.7-0.6,1c-0.4,0.7-1.8,2.4-2.4,3.1c-0.6,0.6-1.2,1.3-1.5,1.7
	c-0.3,0.3-3.2,3.3-7.4,7.1c-1.7,1.5-3.5,3.1-5.2,4.6l0,0c-0.1,0.1-0.3,0.2-0.4,0.4c0,0,0,0,0,0c-0.1,0.1-0.1,0.1-0.2,0.2
	c0,0,0,0,0,0c-0.2,0.2-0.4,0.4-0.6,0.5c0,0,0,0,0,0c-0.1,0.1-0.1,0.1-0.2,0.2c0,0,0,0,0,0c-0.3,0.2-0.5,0.5-0.8,0.7c0,0,0,0,0,0
	c-2,1.7-3.6,3.1-4.4,3.7c0,0,0,0,0,0c-0.1,0.1-0.1,0.1-0.2,0.2c0,0,0,0-0.1,0.1c-0.1,0.1-0.1,0.1-0.2,0.2c0,0,0,0,0,0
	c-0.1,0.1-0.2,0.1-0.2,0.2c0,0,0,0-0.1,0c-0.1,0.1-0.1,0.1-0.2,0.2c0,0,0,0,0,0c-0.1,0.1-0.2,0.1-0.2,0.2c0,0,0,0,0,0
	c-0.1,0.1-0.1,0.1-0.2,0.2c0,0,0,0,0,0c-0.1,0.1-0.2,0.1-0.2,0.2c0,0,0,0,0,0c-0.1,0.1-0.2,0.1-0.2,0.2c0,0,0,0,0,0c0,0,0,0,0,0
	c-0.1,0.1-0.2,0.1-0.3,0.2c0,0,0,0,0,0c-0.1,0.1-0.2,0.1-0.3,0.2c0,0,0,0,0,0c-0.2,0.1-0.4,0.2-0.6,0.4l0,0
	c-0.1,0.1-0.2,0.1-0.3,0.2c0,0,0,0,0,0c-0.3,0.2-0.5,0.3-0.8,0.5c0,0,0,0,0,0c-1.8,1.1-3.1,1.7-3.2,1.7c-0.4,0.2-0.8,0.2-1.2,0.2
	c-1.2,0-2.3-0.7-2.8-1.8c-0.7-1.5,0-3.3,1.6-4c0,0,2.9-1.3,6-3.8c1.6-1.3,7.1-6,11.7-10.1c4-3.7,6.7-6.5,7-6.8
	c0.3-0.4,0.9-1,1.4-1.6c0.5-0.6,1.6-1.9,1.8-2.2c0.1-0.1,0.2-0.4,0.4-0.7c0,0,0,0,0,0c0.4-0.8,0.6-1.6,0.6-2.5
	c0-2.9-2.3-5.2-5.2-5.2c-1.1,0-2.2,0.4-3.1,1l-6.3,4.8c0,0-0.1,0-0.1,0.1c-0.1,0.1-2.9,2-6.8,4.4c0,0,0,0,0,0
	c-0.1,0.1-0.3,0.2-0.4,0.2c0,0,0,0,0,0c-0.1,0.1-0.3,0.2-0.4,0.2c0,0,0,0,0,0c-0.1,0.1-0.3,0.2-0.4,0.2c0,0,0,0,0,0
	c-0.1,0.1-0.3,0.2-0.4,0.3c0,0,0,0,0,0c0,0,0,0,0,0c-0.2,0.1-0.3,0.2-0.5,0.3l0,0c0,0,0,0,0,0c-0.2,0.1-0.3,0.2-0.5,0.3h0
	c0,0,0,0,0,0c-0.2,0.1-0.4,0.2-0.6,0.4c0,0,0,0,0,0c-0.1,0-0.1,0.1-0.2,0.1h0c-0.1,0.1-0.3,0.2-0.4,0.2l0,0c-0.1,0-0.2,0.1-0.3,0.1
	c0,0,0,0,0,0l-0.2,0.1c-0.4,0.2-0.7,0.4-1.1,0.6c-0.1,0.1-0.2,0.1-0.3,0.2l0,0c-0.4,0.2-0.8,0.4-1.2,0.6c0,0,0,0,0,0
	c-0.1,0-0.2,0.1-0.2,0.1c0,0,0,0,0,0c-0.2,0.1-0.4,0.2-0.6,0.3c-0.1,0-0.2,0.1-0.2,0.1c0,0,0,0,0,0c-0.1,0-0.2,0.1-0.3,0.1
	c-0.1,0-0.2,0.1-0.3,0.1c0,0,0,0,0,0c-0.1,0-0.2,0.1-0.3,0.1c-0.1,0-0.2,0.1-0.3,0.1l0,0c0,0-0.1,0-0.1,0.1c-3.2,1.5-6,2.6-8.5,3.2
	c0,0,0,0,0,0c-0.3,0.1-0.5,0.1-0.8,0.2l0,0c-0.4,0.1-0.7,0.2-1.1,0.2c-0.1,0-0.3,0-0.4,0.1c0,0-0.1,0-0.1,0c-0.1,0-0.2,0-0.2,0
	c-5.6,0.7-11.2,1.7-16.8,2.3c-4.3,0.5-12.4,4.2-16.5,11.6c0,0-0.7,1.5-1.6,3.2c-0.8,1.9-2.1,3.7-3.6,5.1c0,0,0,0,0,0
	c-0.1,0.1-0.3,0.3-0.4,0.4c0,0,0,0,0,0c-0.1,0.1-0.2,0.2-0.3,0.2c0,0,0,0,0,0c0,0-0.1,0.1-0.1,0.1c0,0,0,0-0.1,0
	c-0.1,0.1-0.2,0.1-0.2,0.2c0,0,0,0-0.1,0c0,0-0.1,0.1-0.1,0.1c0,0-0.1,0-0.1,0.1c-0.1,0-0.2,0.1-0.2,0.1c0,0-0.1,0-0.1,0.1
	c0,0-0.1,0.1-0.1,0.1c0,0-0.1,0.1-0.1,0.1c-0.1,0-0.1,0.1-0.2,0.1c0,0-0.1,0-0.1,0.1c0,0-0.1,0-0.1,0.1c-0.1,0-0.1,0.1-0.2,0.1
	c0,0-0.1,0-0.1,0.1c0,0-0.1,0-0.1,0.1c0,0-0.1,0-0.1,0.1c-0.1,0-0.1,0.1-0.2,0.1c0,0-0.1,0-0.1,0.1c-0.1,0-0.1,0-0.2,0.1
	c0,0-0.1,0-0.1,0.1c-0.1,0-0.1,0-0.2,0.1c0,0-0.1,0-0.1,0c-0.1,0-0.2,0.1-0.2,0.1c0,0-0.1,0-0.1,0c-0.1,0-0.1,0-0.2,0.1
	c0,0-0.1,0-0.1,0c-0.1,0-0.2,0.1-0.2,0.1c0,0-0.1,0-0.1,0c-0.1,0-0.1,0-0.2,0.1c0,0-0.1,0-0.1,0c-0.1,0-0.2,0-0.3,0.1
	c0,0-0.1,0-0.1,0c-0.1,0-0.2,0-0.2,0.1c0,0,0,0-0.1,0c-0.1,0-0.2,0-0.3,0.1c0,0-0.1,0-0.1,0c-0.1,0-0.2,0-0.3,0.1c0,0,0,0-0.1,0
	c-0.1,0-0.2,0-0.2,0c0,0-0.1,0-0.1,0c-0.1,0-0.2,0-0.3,0c0,0-0.1,0-0.1,0c-0.1,0-0.2,0-0.2,0c0,0,0,0-0.1,0c-0.1,0-0.2,0-0.3,0
	c0,0-0.1,0-0.1,0c-0.1,0-0.2,0-0.3,0c0,0,0,0-0.1,0c-0.1,0-0.2,0-0.3,0c0,0-0.1,0-0.1,0c-0.1,0-0.2,0-0.3,0c-0.1,0-0.2,0-0.3,0
	c0,0-0.1,0-0.1,0c-0.1,0-0.2,0-0.3,0c0,0,0,0-0.1,0c-0.1,0-0.2,0-0.3,0c0,0-0.1,0-0.1,0c-0.1,0-0.2,0-0.3,0c0,0,0,0-0.1,0
	c-0.1,0-0.2,0-0.2,0c0,0,0,0-0.1,0c-0.1,0-0.2,0-0.3,0c0,0-0.1,0-0.1,0c-0.1,0-0.2,0-0.2,0c0,0,0,0-0.1,0c-0.1,0-0.2,0-0.3-0.1
	c0,0-0.1,0-0.1,0c-0.1,0-0.2,0-0.3-0.1c0,0,0,0-0.1,0c-0.1,0-0.2,0-0.2-0.1c0,0-0.1,0-0.1,0c-0.1,0-0.2,0-0.3-0.1c0,0-0.1,0-0.1,0
	c-0.1,0-0.1,0-0.2-0.1c0,0-0.1,0-0.1,0c-0.1,0-0.2-0.1-0.2-0.1c0,0-0.1,0-0.1,0c-0.1,0-0.1,0-0.2-0.1c0,0-0.1,0-0.1,0
	c-0.1,0-0.2-0.1-0.2-0.1c0,0-0.1,0-0.1,0c-0.1,0-0.1,0-0.2-0.1c0,0-0.1,0-0.1-0.1c-0.1,0-0.1,0-0.2-0.1c0,0-0.1,0-0.1-0.1
	c-0.1,0-0.1-0.1-0.2-0.1c-0.1,0-0.1,0-0.2-0.1c0,0-0.1,0-0.1-0.1c0,0-0.1,0-0.1-0.1c-0.1,0-0.1-0.1-0.2-0.1c0,0-0.1,0-0.1-0.1
	c0,0-0.1,0-0.1-0.1c-0.1,0-0.1-0.1-0.2-0.1c0,0-0.1-0.1-0.1-0.1c0,0-0.1-0.1-0.1-0.1c0,0-0.1,0-0.1-0.1c-0.1,0-0.2-0.1-0.2-0.1
	c0,0-0.1,0-0.1-0.1c0,0-0.1-0.1-0.1-0.1c0,0,0,0-0.1,0c-0.1-0.1-0.2-0.1-0.2-0.2c0,0,0,0-0.1,0c0,0-0.1-0.1-0.1-0.1c0,0,0,0,0,0
	c-0.1-0.1-0.2-0.2-0.3-0.2c0,0,0,0,0,0c-0.2-0.1-0.3-0.3-0.4-0.4c0,0,0,0,0,0c-1.6-1.4-2.8-3.1-3.6-5.1c-0.9-1.7-1.6-3.2-1.6-3.2
	c-4.2-7.4-12.3-11.1-16.5-11.6c-5.6-0.7-11.2-1.7-16.8-2.3c-0.1,0-0.2,0-0.2,0c0,0-0.1,0-0.1,0c-0.1,0-0.3,0-0.4-0.1
	c-0.3-0.1-0.7-0.1-1.1-0.2l0,0c-0.2-0.1-0.5-0.1-0.8-0.2c0,0,0,0,0,0c-2.5-0.6-5.3-1.7-8.5-3.2c0,0-0.1,0-0.1-0.1c0,0,0,0,0,0
	c-0.1,0-0.2-0.1-0.3-0.1c-0.1,0-0.2-0.1-0.3-0.1c0,0,0,0,0,0c-0.1,0-0.2-0.1-0.3-0.1c-0.1,0-0.2-0.1-0.3-0.1c0,0,0,0,0,0
	c-0.1,0-0.2-0.1-0.2-0.1c-0.2-0.1-0.4-0.2-0.6-0.3c0,0,0,0,0,0c-0.1,0-0.2-0.1-0.2-0.1c0,0,0,0,0,0c-0.4-0.2-0.8-0.4-1.2-0.6l0,0
	c-0.1-0.1-0.2-0.1-0.4-0.2c-0.4-0.2-0.7-0.4-1.1-0.6c-0.1,0-0.1-0.1-0.2-0.1c0,0,0,0,0,0c-0.1,0-0.2-0.1-0.2-0.1c0,0,0,0,0,0
	c-0.1-0.1-0.3-0.2-0.4-0.2c0,0,0,0,0,0c-0.1,0-0.1-0.1-0.2-0.1c0,0,0,0,0,0c-0.2-0.1-0.4-0.2-0.6-0.4c0,0,0,0,0,0c0,0,0,0,0,0
	c-0.2-0.1-0.3-0.2-0.5-0.3v0c0,0,0,0,0,0c-0.2-0.1-0.3-0.2-0.5-0.3c0,0,0,0,0,0c0,0,0,0,0,0c-0.1-0.1-0.3-0.2-0.4-0.3c0,0,0,0,0,0
	c-0.1-0.1-0.3-0.2-0.4-0.2c0,0,0,0,0,0c-0.1-0.1-0.3-0.2-0.4-0.2c0,0,0,0,0,0c-0.1-0.1-0.3-0.2-0.4-0.2c0,0,0,0,0,0l0,0
	c-3.9-2.4-6.6-4.3-6.8-4.4c0,0-0.1,0-0.1-0.1l-6.3-4.8c-0.9-0.7-2-1-3.1-1c-2.9,0-5.2,2.3-5.2,5.2c0,0.9,0.2,1.7,0.6,2.5
	c0,0,0,0,0,0c0.1,0.3,0.3,0.5,0.4,0.7c0.2,0.3,1.3,1.7,1.8,2.2c0.5,0.6,1.1,1.2,1.4,1.6c0.3,0.3,3,3.1,7,6.8
	c4.6,4.2,10.1,8.8,11.7,10.1c3.1,2.5,6,3.8,6,3.8c1.5,0.7,2.2,2.4,1.6,4c-0.5,1.1-1.6,1.8-2.8,1.8c-0.4,0-0.8-0.1-1.2-0.2
	c-0.1,0-1.4-0.6-3.2-1.7c0,0,0,0,0,0c-0.2-0.2-0.5-0.3-0.8-0.5c0,0,0,0,0,0c-0.1-0.1-0.2-0.1-0.3-0.2c0,0,0,0,0,0
	c-0.2-0.1-0.4-0.2-0.5-0.4c0,0,0,0,0,0c-0.1-0.1-0.2-0.1-0.3-0.2c0,0,0,0,0,0c-0.1-0.1-0.2-0.1-0.3-0.2h0c0,0,0,0,0,0
	c-0.1-0.1-0.2-0.1-0.2-0.2c0,0,0,0,0,0c-0.1-0.1-0.2-0.1-0.2-0.2c0,0,0,0,0,0c-0.1-0.1-0.1-0.1-0.2-0.2c0,0,0,0,0,0
	c-0.1-0.1-0.2-0.1-0.2-0.2c0,0,0,0,0,0c-0.1-0.1-0.1-0.1-0.2-0.2c0,0,0,0-0.1,0c-0.1-0.1-0.2-0.1-0.2-0.2c0,0,0,0,0,0
	c-0.1-0.1-0.1-0.1-0.2-0.2c0,0,0,0-0.1-0.1c-0.1-0.1-0.1-0.1-0.2-0.2c0,0,0,0,0,0c-0.8-0.6-2.4-2-4.4-3.7c0,0,0,0,0,0
	c-0.3-0.2-0.5-0.4-0.8-0.7c0,0,0,0,0,0c-0.1-0.1-0.1-0.1-0.2-0.2c0,0,0,0,0,0c-0.2-0.2-0.4-0.4-0.6-0.5c0,0,0,0,0,0
	c-0.1-0.1-0.1-0.1-0.2-0.2c0,0,0,0,0,0c-0.1-0.1-0.3-0.2-0.4-0.4c-1.7-1.5-3.5-3.1-5.2-4.6c-4.2-3.8-7.1-6.8-7.4-7.1
	c-0.4-0.4-1-1.1-1.5-1.7c-0.6-0.7-2-2.4-2.4-3.1c-0.2-0.3-0.3-0.6-0.6-1c-0.8-1.6-1.3-3.3-1.3-5.1c0-0.1,0-0.1,0-0.2
	c0-3,1.2-5.8,3.3-7.9c2.1-2.1,4.9-3.3,7.9-3.3c0.1,0,0.2,0,0.3,0c0,0,0,0,0,0c2.3,0.1,4.5,0.8,6.4,2.2c0,0,0,0,0,0l3.7,2.8
	c0.6,0.4,1.3,0.7,2.1,0.7c1.9,0,3.4-1.5,3.4-3.4c0-0.4-0.1-0.7-0.2-1c-1.2-3.3-2.4-6.6-3.8-9.8c-1.8-4.1-5.7-4.7-9.1-4.2
	c-2.1-3.6-3.7-7.1-6.1-9.9c-2.8-3.3-5.8-3.1-9.9-0.4c-1.1-2-2-3.7-2.9-5.1c-0.1-0.1-3.1-4.9-7.1-5.6c-2.9-0.2-6.9,0.8-7.8,6.6
	c0,2.2,0.4,4.4,1,6.6c5.2,20.1,10.6,40.1,15.5,60.2c2.4,9.8,8.8,16.2,18.1,18.9c2.5,0.7,4.4,0.6,4.8,0.6c11.2,0,22.1-0.1,33.2,2.3
	c13.2,2.8,30.2,14.3,39.9,28.8c0.6,0.9,1.6,1.5,2.8,1.5c0.1,0,0.1,0,0.2,0c0.1,0,0.1,0,0.2,0c1.2,0,2.2-0.6,2.8-1.5
	c9.7-14.5,26.7-26,39.9-28.8c11-2.4,22-2.3,33.2-2.3c0.4,0,2.3,0.1,4.8-0.6c9.3-2.8,15.7-9.2,18.1-18.9c5-20.1,10.4-40.1,15.5-60.2
	c0.6-2.2,1-4.4,1-6.6C300.6,54.6,296.7,53.7,293.7,53.8"/>
<path class="st1" d="M353.4,196L353.4,196l-22-24.5h0c-1.8-2-4.3-3.3-7.2-3.3h0l-8.3,0h-0.2h0c-6.9-0.1-26-3.5-36.1-6
	c-31-7.7-42.6-8-54.4-4.9c-12.3,3.3-23.3,13.8-28.6,20.9c-3.8,5.1-4.6,6.5-7.4,10.6h0c-0.6,0.9-1.6,1.6-2.8,1.6c-0.1,0-0.1,0-0.2,0
	h0c-0.1,0-0.1,0-0.2,0c-1.2,0-2.3-0.6-2.8-1.6h0c-2.8-4.2-3.6-5.6-7.4-10.6c-5.3-7.1-16.3-17.6-28.6-20.9
	c-11.8-3.2-23.4-2.8-54.4,4.9c-10.2,2.5-29.2,5.9-36.1,6h0h-0.2l-8.3,0h0c-2.9,0-5.5,1.3-7.2,3.3h0L18.8,196h0
	c0,0.1-0.1,0.1-0.1,0.2c0,0.1,0.1,0.2,0.2,0.3c59.3,14.7,62.4-6.3,105.5-6.3c0.2,0,0.4,0,0.6,0h0c0,0,4.8-0.1,12,0.5c0,0,0,0,0,0
	c0.1,0,0.3,0,0.4,0c0,0,0,0,0,0c0.1,0,0.3,0,0.4,0c0,0,0,0,0,0c0.1,0,0.3,0,0.4,0c0,0,0,0,0,0c0.3,0,0.6,0,0.9,0.1c0,0,0,0,0,0
	c0.1,0,0.3,0,0.4,0c0,0,0,0,0,0c0.1,0,0.3,0,0.4,0c0,0,0,0,0,0c0.5,0,0.9,0.1,1.4,0.1c0,0,0,0,0,0c0.1,0,0.3,0,0.5,0c0,0,0,0,0,0
	c0.6,0.1,1.3,0.1,1.9,0.2c0,0,0,0,0,0c0,0,0,0,0,0c10.6,1.2,23.8,3.9,34.5,9.3c0,0,0,0,0,0c0.2,0.1,0.3,0.2,0.5,0.3c0,0,0,0,0,0
	c0.2,0.1,0.3,0.2,0.5,0.3c0,0,0,0,0,0c0.2,0.1,0.3,0.2,0.5,0.3c0,0,0,0,0,0c0.2,0.1,0.3,0.2,0.5,0.3h0c0.3,0.2,0.6,0.4,1,0.6
	c0,0,0,0,0,0c0.2,0.1,0.3,0.2,0.4,0.3c0,0,0,0,0,0c0.1,0.1,0.3,0.2,0.4,0.3c0,0,0,0,0.1,0c0.1,0.1,0.3,0.2,0.4,0.3l0.1,0
	c0.1,0.1,0.3,0.2,0.4,0.3c0,0,0,0,0.1,0c0.1,0.1,0.3,0.2,0.4,0.3c0,0,0,0,0,0c0.1,0.1,0.3,0.2,0.4,0.3v0c0,0,0.1,0.1,0.1,0.1
	c0,0,0,0,0,0c0,0,0,0,0,0c0,0,0.1,0,0.1,0.1c0,0,0,0,0,0c0,0,0,0,0,0c0,0,0.1,0,0.1,0l0,0h0c0,0,0.1,0,0.1,0c0,0,0.1,0,0.1,0
	c0,0,0,0,0.1,0c0,0,0.1,0,0.1,0c0,0,0.1,0,0.1,0c0,0,0,0,0.1,0c0,0,0,0,0.1,0c0.1,0,0.2,0.1,0.3,0.1c0,0,0.1,0,0.1,0
	c0,0,0.1,0,0.1,0c0.1,0,0.2,0,0.3,0c0,0,0.2,0,0.2,0c0,0,0,0,0,0c0,0,0,0,0,0c0,0,0.2,0,0.2,0c0.1,0,0.2,0,0.3,0c0,0,0.1,0,0.1,0
	c0,0,0.1,0,0.1,0c0.1,0,0.2,0,0.3-0.1c0,0,0.1,0,0.1,0c0,0,0,0,0.1,0c0,0,0.1,0,0.1,0c0,0,0,0,0.1,0c0,0,0,0,0.1,0c0,0,0.1,0,0.1,0
	c0,0,0.1,0,0.1,0c0,0,0,0,0,0l0,0c0,0,0.1,0,0.1,0c0,0,0,0,0,0l0,0c0,0,0.1,0,0.1-0.1c0,0,0,0,0,0c0,0,0,0,0,0c0,0,0.1-0.1,0.1-0.1
	v0c0.1-0.1,0.3-0.2,0.4-0.3c0,0,0,0,0,0c0.1-0.1,0.3-0.2,0.4-0.3c0,0,0,0,0.1,0c0.1-0.1,0.3-0.2,0.4-0.3c0,0,0,0,0.1,0
	c0.1-0.1,0.3-0.2,0.4-0.3c0,0,0,0,0.1,0c0.1-0.1,0.3-0.2,0.4-0.3c0,0,0,0,0,0c0.1-0.1,0.3-0.2,0.4-0.3c0,0,0,0,0,0
	c0.3-0.2,0.6-0.4,1-0.6c0,0,0,0,0,0c0.2-0.1,0.3-0.2,0.5-0.3c0,0,0,0,0,0c0.2-0.1,0.3-0.2,0.5-0.3c0,0,0,0,0,0
	c0.2-0.1,0.3-0.2,0.5-0.3c0,0,0,0,0,0c0.2-0.1,0.3-0.2,0.5-0.3c0,0,0,0,0,0c10.6-5.5,23.9-8.1,34.5-9.3h0c0,0,0,0,0,0
	c0.6-0.1,1.3-0.1,1.9-0.2c0,0,0,0,0,0c0.2,0,0.3,0,0.5,0c0,0,0,0,0,0c0.5,0,0.9-0.1,1.4-0.1c0,0,0,0,0,0c0.1,0,0.3,0,0.4,0
	c0,0,0,0,0,0c0.1,0,0.3,0,0.4,0c0,0,0,0,0,0c0.3,0,0.6-0.1,0.9-0.1h0c0.1,0,0.3,0,0.4,0c0,0,0,0,0,0c0.1,0,0.3,0,0.4,0c0,0,0,0,0,0
	c0.1,0,0.3,0,0.4,0c0,0,0,0,0,0c7.1-0.5,12-0.5,12-0.5h0c0.2,0,0.4,0,0.6,0c43.1,0,46.1,21,105.5,6.3c0.1,0,0.2-0.1,0.2-0.3
	C353.4,196.1,353.4,196.1,353.4,196"/>
<path class="st1" d="M355.3,211.5l-0.1-8.5h0c0-0.2-0.1-0.3-0.3-0.3c0,0-0.1,0-0.1,0c0,0-0.1,0-0.1,0c-14.7,3.7-27.2,5.4-38.1,5.4h0
	c-13.9,0-23.8-2.9-33.3-5.7c-0.9-0.3-1.8-0.5-2.8-0.8l0,0c-1.7-0.5-3.5-1-5.3-1.5c0,0,0,0,0,0c-0.9-0.2-1.8-0.5-2.7-0.7c0,0,0,0,0,0
	c-4.6-1.1-9.7-2-15.5-2.5c-2.9-0.2-6-0.4-9.4-0.4l-2.1,0l0,0c-1.8,0-5.4,0.1-10,0.4l-1.9,0.2l-0.1,0l-0.2,0l-0.7,0.1
	c-0.5,0-1.8,0.2-1.8,0.2c-0.6,0.1-1.2,0.1-1.8,0.2l0,0c-1.4,0.2-2.7,0.3-4.1,0.5c0,0,0,0,0,0c-0.6,0.1-1.2,0.2-1.8,0.3
	c-0.1,0-0.1,0-0.2,0c-0.6,0.1-1.2,0.2-1.7,0.3c-0.1,0-0.2,0-0.3,0c-0.6,0.1-1.2,0.2-1.7,0.3c-0.1,0-0.1,0-0.2,0
	c-8.2,1.6-15.3,3.8-21,6.5c-4.6,2-7.8,3.9-9.7,5.1c-0.4,0.2-0.8,0.5-1.3,0.6c-0.2,0.1-0.4,0.1-0.6,0.1c0,0,0,0,0,0c0,0,0,0-0.1,0
	c0,0-0.1,0-0.1,0c0,0,0,0,0,0c0,0-0.1,0-0.1,0c0,0,0,0-0.1,0c0,0,0,0-0.1,0c0,0-0.1,0-0.1,0c0,0,0,0,0,0c0,0-0.1,0-0.1,0
	c0,0,0,0-0.1,0c0,0,0,0,0,0c-0.2,0-0.4-0.1-0.6-0.1c-0.5-0.1-0.9-0.3-1.3-0.6c-1.9-1.2-5-3.1-9.5-5.1c-1.8-0.9-3.7-1.7-5.7-2.4
	c0,0,0,0,0,0c-0.5-0.2-1-0.4-1.5-0.5c0,0-0.1,0-0.1,0c-0.5-0.2-1-0.3-1.5-0.5c0,0-0.1,0-0.1,0c-3.7-1.2-7.8-2.2-12.2-3.1
	c-0.1,0-0.1,0-0.2,0c-0.6-0.1-1.2-0.2-1.7-0.3c-0.1,0-0.2,0-0.2,0c-0.6-0.1-1.2-0.2-1.8-0.3c-0.1,0-0.1,0-0.2,0
	c-0.6-0.1-1.3-0.2-1.9-0.3c0,0,0,0,0,0c-1.3-0.2-2.6-0.4-4-0.5l-0.2,0l-0.1,0c-0.6-0.1-1.1-0.1-1.7-0.2l-2.6-0.3l-0.2,0l-0.1,0
	l-2-0.2c-4.5-0.3-8.1-0.4-9.9-0.4l0,0l-2.1,0c-3.4,0-6.5,0.1-9.4,0.4c-5.8,0.5-10.9,1.4-15.5,2.5c0,0,0,0,0,0
	c-0.9,0.2-1.8,0.4-2.7,0.7c0,0,0,0-0.1,0c-1.8,0.5-3.5,1-5.2,1.4c-0.9,0.3-1.9,0.5-2.8,0.8c-9.5,2.8-19.4,5.7-33.3,5.7
	c-10.9,0-23.3-1.8-38.1-5.4c0,0-0.1,0-0.1,0v0c0,0-0.1,0-0.1,0c-0.2,0-0.3,0.1-0.3,0.3l-0.1,8.5h0c0,0,0,0.1,0,0.1
	c0,1.8,1.5,3.3,3.3,3.4h165.9h0h0H352c1.8,0,3.3-1.5,3.3-3.4C355.3,211.5,355.3,211.5,355.3,211.5L355.3,211.5z"/>
<path class="st0" d="M415.5,63.3l6.2-16.1l6.2,16.1H415.5z M420,41.7l-13,33.4h4l3.1-8.1h15.1l3.1,8.1h4l-12.9-33.4H420z"/>
<path class="st0" d="M452,56.3c-4.7-1.6-7.4-2.6-7.4-5.9c0-3.3,2.6-5.5,6.6-5.5c4.6,0,6.7,2.8,7.6,5.1l0.3,0.7l3.2-1.8l-0.2-0.6
	c-1.9-4.5-6-7.1-10.9-7.1c-6.1,0-10.4,3.8-10.4,9.3c0,6,5.1,7.7,10.5,9.4l0.1,0c5.3,1.7,7.8,3,7.8,6.2c0,3.6-2.8,5.7-7.4,5.7
	c-4.7,0-7.9-2.1-9-6l-0.2-0.8l-3.3,1.9l0.2,0.5c1.6,5,6.2,8,12.4,8c6.7,0,11.2-3.8,11.2-9.5C463.1,59.9,457.4,58.1,452,56.3"/>
<path class="st0" d="M480.9,56.3c-4.7-1.6-7.4-2.6-7.4-5.9c0-3.3,2.6-5.5,6.6-5.5c4.6,0,6.7,2.8,7.6,5.1l0.3,0.7l3.2-1.8l-0.2-0.6
	c-1.9-4.5-6-7.1-10.9-7.1c-6.1,0-10.4,3.8-10.4,9.3c0,6,5.1,7.7,10.5,9.4l0.1,0c5.3,1.7,7.8,3,7.8,6.2c0,3.6-2.8,5.7-7.4,5.7
	c-4.7,0-7.9-2.1-9-6l-0.2-0.8l-3.3,1.9l0.2,0.5c1.6,5,6.2,8,12.4,8c6.7,0,11.2-3.8,11.2-9.5C492,59.9,486.3,58.1,480.9,56.3"/>
<path class="st0" d="M514.6,71.9c-7.5,0-13.4-5.9-13.4-13.5c0-7.6,5.9-13.5,13.4-13.5c7.5,0,13.4,5.9,13.4,13.5
	C528.1,65.9,522.2,71.9,514.6,71.9 M514.6,41.2c-9.6,0-17.2,7.6-17.2,17.2s7.6,17.2,17.2,17.2c9.6,0,17.2-7.6,17.2-17.2
	S524.3,41.2,514.6,41.2"/>
<path class="st0" d="M566.1,65.5c-2,3.9-6.4,6.4-11.1,6.4c-7.7,0-13.6-5.8-13.6-13.5c0-7.7,5.8-13.5,13.6-13.5c4.6,0,9,2.4,11,6.2
	l0.3,0.6l3.3-1.9l-0.3-0.6c-2.8-5-8.3-8-14.3-8c-9.9,0-17.3,7.4-17.3,17.2s7.5,17.2,17.3,17.2c6.1,0,11.6-3.1,14.4-8.2l0.3-0.6
	l-3.3-1.9L566.1,65.5z"/>
<rect x="576.8" y="41.7" class="st0" width="3.8" height="33.4"/>
<path class="st0" d="M595.1,63.3l6.2-16.1l6.2,16.1H595.1z M599.5,41.7l-13,33.4h4l3.1-8.1h15.1l3.1,8.1h4L603,41.7H599.5z"/>
<path class="st0" d="M664.3,38.5c0-0.6,0.1-2.2,0.7-2.2c0.3,0,0.9,0.2,2.3,1.4c1.2,1.1,2.5,1.7,3.7,1.7c1.8,0,3.7-1.5,3.7-5.5v-0.7
	h-3.4v0.7c0,0.6-0.1,2.1-0.7,2.1c-0.3,0-1-0.2-2.3-1.4c-1.3-1.1-2.5-1.7-3.7-1.7c-0.9,0-3.7,0.4-3.7,5.6v0.7h3.4V38.5z"/>
<path class="st0" d="M662.5,63.3l6.2-16.1l6.2,16.1H662.5z M666.9,41.7l-13,33.4h4l3.1-8.1h15.1l3.1,8.1h4l-12.9-33.4H666.9z"/>
<path class="st0" d="M703.5,71.9c-7.5,0-13.4-5.9-13.4-13.5c0-7.6,5.9-13.5,13.4-13.5c7.5,0,13.4,5.9,13.4,13.5
	C716.9,65.9,711,71.9,703.5,71.9 M703.5,41.2c-9.6,0-17.2,7.6-17.2,17.2s7.6,17.2,17.2,17.2c9.6,0,17.2-7.6,17.2-17.2
	S713.2,41.2,703.5,41.2"/>
<path class="st0" d="M647.6,64.9l-0.3,0.6c-2,3.9-6.4,6.4-11.1,6.4c-7.7,0-13.6-5.8-13.6-13.5c0-7.7,5.8-13.5,13.6-13.5
	c4.6,0,9,2.4,11,6.2l0.3,0.6l3.3-1.9l-0.3-0.6c-2.8-5-8.3-8-14.3-8c-9.9,0-17.3,7.4-17.3,17.2c0,9,6.3,16,15.1,17
	c2.6,3.3,2.6,5.4-1.5,5.7v3.1c6.5-0.4,8.1-4.5,5-8.8h0.5c5.4-0.5,10.1-3.5,12.7-8.1l0.3-0.6L647.6,64.9z"/>
</svg>
